<svg width="298" height="52" viewBox="0 0 298 52" fill="none" xmlns="http://www.w3.org/2000/svg">
<path d="M68.7769 11.3088H75.6871C79.2075 11.3088 81.1632 15.3528 81.1632 19.2894C81.1632 21.544 80.5439 23.7986 79.2727 25.2301C80.8046 26.6974 81.5218 29.2025 81.5218 31.6718C81.5218 35.6442 79.566 39.7598 76.0131 39.7598H68.7769V11.3088ZM75.5242 23.5481C76.8606 23.5481 77.5777 21.4367 77.5777 19.3252C77.5777 17.2495 76.9584 15.2454 75.5242 15.2454H72.3298V23.5481H75.5242ZM75.9479 35.8947C77.3169 35.8947 78.0014 33.7475 78.0014 31.6003C78.0014 29.5246 77.2843 27.3774 75.9479 27.3774H72.3298V35.8947H75.9479Z" fill="black"/>
<path d="M84.6184 11.3088H91.1375C95.538 11.3088 97.8522 16.6769 97.8522 22.0093C97.8522 25.7669 96.7114 29.5246 94.5275 31.3855L97.8522 39.724H94.006L91.2027 32.6739H88.2039V39.724H84.651V11.3088H84.6184ZM91.0723 28.8446C93.2237 28.8446 94.2993 25.4448 94.2993 22.0093C94.2993 18.6095 93.1259 15.2097 90.9094 15.2097H88.1713V28.8446H91.0723Z" fill="black"/>
<path d="M105.382 11.3088H108.837L115.258 39.7598H111.575L110.89 36.6463H103.296L102.611 39.7598H98.9929L105.382 11.3088ZM110.01 32.7455L107.109 18.6452L104.241 32.7455H110.01Z" fill="black"/>
<path d="M117.279 11.3088H120.897V39.7598H117.279V11.3088Z" fill="black"/>
<path d="M124.972 11.3088H128.818L135.891 31.135V11.3088H139.346V39.7598H135.5L128.459 19.8262V39.7598H124.972V11.3088Z" fill="black"/>
<path d="M157.47 11.3088H160.925L167.346 39.7598H163.663L162.978 36.6463H155.384L154.699 39.7598H151.081L157.47 11.3088ZM162.098 32.7455L159.197 18.6452L156.329 32.7455H162.098Z" fill="black"/>
<path d="M193.52 32.3518C191.271 37.3621 186.643 40.7619 181.167 40.7619C173.572 40.7619 167.379 33.9623 167.379 25.5165C167.379 17.2138 173.572 10.3784 181.167 10.3784C186.643 10.3784 191.336 13.7782 193.52 18.7169L190.359 20.4346C188.729 16.7486 185.274 14.2434 181.199 14.2434C175.56 14.2434 170.932 19.3252 170.932 25.5165C170.932 31.7792 175.56 36.861 181.199 36.861C185.274 36.861 188.664 34.3201 190.359 30.5983L193.52 32.3518Z" fill="black"/>
<path d="M199.942 11.3088H203.397L209.818 39.7598H206.135L205.451 36.6463H197.823L197.139 39.7598H193.521L199.942 11.3088ZM204.538 32.7455L201.637 18.6452L198.768 32.7455H204.538Z" fill="black"/>
<path d="M211.839 11.3088H218C222.987 11.3088 225.594 18.4305 225.594 25.5164C225.594 32.7097 223.052 39.7956 218 39.7956H211.839V11.3088ZM218.097 35.8947C220.64 35.8947 222.042 30.7414 222.042 25.5164C222.042 20.3988 220.673 15.2454 218.097 15.2454H215.392V35.8947H218.097Z" fill="black"/>
<path d="M228.398 11.3088H240.002V15.2097H231.951V23.5123H237.524V27.3774H231.951V35.8947H240.002V39.7598H228.398V11.3088Z" fill="black"/>
<path d="M243.099 11.3088H247.499L252.16 33.2107L256.854 11.3088H261.32V39.7598H257.799V20.6851L253.888 39.7598H250.433L246.586 20.6851V39.7598H243.099V11.3088Z" fill="black"/>
<path d="M265.427 11.3088H269.045V39.7598H265.427V11.3088Z" fill="black"/>
<path d="M297.892 32.3518C295.643 37.3621 291.014 40.7619 285.538 40.7619C277.943 40.7619 271.75 33.9623 271.75 25.5165C271.75 17.2138 277.943 10.3784 285.538 10.3784C291.014 10.3784 295.708 13.7782 297.892 18.7169L294.73 20.4346C293.1 16.7486 289.645 14.2434 285.571 14.2434C279.932 14.2434 275.303 19.3252 275.303 25.5165C275.303 31.7792 279.932 36.861 285.571 36.861C289.645 36.861 293.035 34.3201 294.73 30.5983L297.892 32.3518Z" fill="black"/>
<path d="M49.5124 32.2398C49.5124 32.204 49.5124 32.1324 49.5124 32.0966C49.5124 31.9893 49.5123 31.8819 49.4797 31.7745C49.4797 31.7387 49.4798 31.6672 49.4472 31.6314C49.4472 31.524 49.4146 31.4167 49.4146 31.3093C49.4146 31.2735 49.4146 31.2019 49.382 31.1662C49.3494 31.023 49.3168 30.8799 49.2842 30.7367C48.6323 27.8737 46.6113 26.5854 45.5683 26.1201C45.5357 26.3707 45.5357 26.6212 45.5031 26.8717C45.4053 27.6948 45.2097 28.4821 44.949 29.2336C43.6777 32.0966 41.4286 32.0966 41.4286 32.0966C43.0584 31.2377 44.1993 29.0905 44.4926 26.478C44.5252 26.0844 44.5578 25.7265 44.5578 25.297C44.5904 23.2929 44.1015 21.3604 43.2214 19.8932C41.0701 16.2786 36.963 16.4218 35.7244 16.9228C35.7244 17.1375 35.6918 17.4238 35.6592 17.7817C35.6266 17.9964 35.594 18.2111 35.5614 18.4617C34.9421 21.5394 33.0841 21.8257 33.0841 21.8257C33.8664 21.0741 34.2902 19.7142 34.4857 18.6048C34.6487 17.6385 34.6813 16.8154 34.6813 16.6365L34.6487 16.4218C34.4531 14.9903 34.0946 12.3062 31.5847 10.5527C28.7815 8.62014 25.2938 9.44325 23.5988 10.4811C23.2728 10.6958 22.6861 11.1253 22.0342 11.7336C21.0237 12.7357 19.9155 14.2745 19.7851 16.2071C19.7851 16.2071 18.8398 13.9882 20.5674 11.7694C21.0889 11.0895 21.6756 10.5884 22.1646 10.159C22.4253 9.94427 22.6535 9.76534 22.8491 9.65797C22.8491 9.12116 22.6861 8.40542 22.132 7.72546C21.4475 6.83078 19.8829 5.75716 16.4278 5.47086C11.7014 5.11299 8.83296 7.79703 7.88768 10.8747C8.14845 10.8032 8.40921 10.7674 8.63738 10.7674C10.6583 10.6242 11.4732 11.841 11.4732 11.841C10.4301 11.5547 9.15891 11.7336 8.31142 11.9484C7.85508 12.0557 7.52912 12.1631 7.43133 12.2347L7.39875 12.2704C4.88888 13.6304 3.38948 15.706 2.99833 18.3901C2.67238 20.6447 3.19391 22.6846 3.55246 23.5792C3.58506 23.615 3.78063 23.9729 4.13918 24.4381C5.11705 25.6191 7.39875 27.4443 11.2124 25.7265C11.2124 25.7265 10.2998 27.4085 8.27883 27.5516C7.65952 27.5516 7.07279 27.4443 6.58386 27.3011C5.99713 27.1222 5.4756 26.8717 5.05185 26.6212C4.43254 26.2633 3.9436 25.7981 3.58505 25.4044C3.42207 25.2255 3.2591 25.0107 3.12872 24.8318C2.15085 26.7285 1.20558 30.0567 1.98787 33.2418C2.60719 35.7827 4.46514 37.4647 5.5734 38.2878C5.5734 38.2878 5.5734 38.2878 5.5734 38.252C5.5408 37.93 5.5408 37.6437 5.5734 37.3932C5.70378 35.7827 6.61644 35.2101 6.61644 35.2101C6.51866 36.2122 6.51866 37.2142 6.61644 38.1447C6.64904 38.5383 6.68164 38.8962 6.74683 39.2899C7.10539 41.294 8.01806 43.978 10.5279 45.2306C12.6792 46.3042 14.635 46.1253 15.6129 45.9105C15.5151 45.6958 15.4173 45.4811 15.3195 45.2664C14.7654 43.7991 14.7328 42.1171 14.9935 40.5424C14.1786 40.3993 13.4615 40.113 12.94 39.6835C11.3754 38.0373 12.1251 36.4985 12.1251 36.4985C12.2229 37.1069 12.777 39.0752 15.2543 39.433C16.0692 36.9279 17.8946 36.4985 17.8946 36.4985C16.4603 37.8942 15.1239 41.9739 16.33 44.9443C16.4603 45.3022 16.6233 45.6242 16.8515 45.9105C20.0133 50.1334 24.707 49.9187 26.8584 48.5588C26.728 48.3441 26.6302 48.1293 26.565 47.9146C26.239 46.9126 26.4346 45.839 26.4346 45.839C26.5976 46.4473 26.9236 46.9842 27.2495 47.3778C27.5755 47.7715 27.8688 48.0578 27.9992 48.1293C32.1715 50.885 35.8874 50.0261 37.7453 47.9146L37.9409 47.6999C38.1039 47.521 38.2342 47.3062 38.3646 47.0557C39.0165 45.8747 39.2447 44.1927 38.984 42.1886C38.984 42.1886 40.5159 44.4433 39.6033 46.841C39.5381 46.9842 39.5055 47.0915 39.4403 47.2347C39.3425 47.4852 39.2121 47.6999 39.0817 47.9146C42.3413 48.4156 46.155 47.6641 47.9152 44.1212C49.1538 41.6161 49.056 39.612 48.8278 38.4668C48.7626 38.5741 48.6975 38.6815 48.5997 38.7531C48.5019 38.8962 48.3715 39.0394 48.2411 39.1825C47.9478 39.5046 47.6544 39.7909 47.3284 40.0056C45.9594 40.9361 43.9059 39.8267 43.9059 39.8267C45.829 40.0056 47.1003 38.932 47.8174 38.0015C47.8826 37.93 47.9152 37.8584 47.9478 37.7868C48.1433 37.5005 48.3389 37.1784 48.5345 36.8206V36.7848C48.5997 36.6774 48.6649 36.5343 48.6975 36.4269C48.6975 36.3911 48.7301 36.3553 48.7301 36.3553C48.7626 36.248 48.8278 36.1406 48.8604 35.9974C48.8604 35.9617 48.893 35.9259 48.893 35.9259C48.9256 35.8185 48.9908 35.6754 49.0234 35.5322C49.0234 35.5322 49.0234 35.4964 49.056 35.4964C49.1864 35.0312 49.2842 34.5659 49.382 34.1007C49.382 34.0649 49.382 34.0649 49.382 34.0291C49.4146 33.886 49.4146 33.7786 49.4472 33.6355C49.4472 33.5997 49.4472 33.5639 49.4472 33.5281C49.4472 33.385 49.4797 33.2418 49.4797 33.1345C49.4797 33.0987 49.4797 33.0987 49.4797 33.0629C49.4797 32.9197 49.4797 32.7408 49.4797 32.5977C49.5449 32.5261 49.5124 32.3829 49.5124 32.2398ZM29.0097 44.8727C28.3252 44.8727 27.6081 44.7653 26.9236 44.5148C24.1855 43.6201 21.969 41.0792 21.5779 38.4668C21.2193 35.9617 21.7408 33.4565 22.9795 31.5956C24.9026 28.9831 27.4777 30.0567 27.4777 30.0567C26.0435 30.2715 24.8048 31.0588 23.9248 32.3471C22.8491 33.9218 22.4253 36.069 22.7187 38.252C23.0121 40.3635 24.9678 42.5107 27.2169 43.2623C28.5533 43.6917 31.1284 44.0138 33.4427 41.2224C33.4753 41.2582 33.4753 44.3717 29.0097 44.8727ZM39.9292 26.8717C39.5707 27.8379 39.0491 28.661 38.4624 29.1979C37.5497 30.0568 36.4415 30.4862 35.3332 30.4862C34.8769 30.4862 34.4532 30.4146 34.0294 30.2715C34.1598 31.6314 34.0294 32.9197 33.6708 34.0649C34.1272 35.7827 35.1377 36.9637 36.4741 37.4647C37.6801 37.8942 39.0491 37.6795 39.864 36.9279C39.864 36.9279 38.8862 39.5046 36.1481 38.5383C34.7791 38.0373 33.7035 36.9995 33.0515 35.4964C32.856 35.8543 32.6278 36.1764 32.3996 36.4627C30.0527 38.5741 27.9666 37.4289 27.9666 37.4289C29.303 37.3932 30.6069 36.749 31.5195 35.6038C32.2692 34.6733 33.1167 32.9913 32.856 30.3073C32.4648 26.1917 29.5638 21.9688 24.1529 22.434C19.5243 22.8277 16.9167 26.657 16.33 29.0547C16.5255 29.1263 16.7537 29.1979 16.9493 29.3052C19.7851 30.8441 19.7851 33.7071 19.7851 33.7071C18.4161 31.3451 16.5907 30.0925 14.472 30.021C12.1251 29.9494 9.87601 31.4525 8.89814 32.9555C8.89814 32.9555 8.86554 30.5936 11.8317 29.1979C12.6466 28.8758 13.5593 28.7326 14.5046 28.7326C14.7002 28.7326 14.9283 28.7684 15.1565 28.7684C15.4499 27.5158 16.1344 26.1201 17.1774 24.8318C17.4056 23.7582 17.1123 23.0066 16.33 22.5056L16.2974 22.4698C15.2869 21.7899 14.3416 20.8236 13.6571 19.6784C11.571 17.9606 8.80036 19.0343 8.44181 19.4637C8.44181 19.4637 8.44181 17.9964 10.2346 17.6385C10.9517 17.567 11.8969 17.567 12.8748 17.9606C12.8748 17.9248 12.8422 17.8891 12.8422 17.8533C12.2881 15.9208 12.4837 13.8093 13.4289 12.0199C14.472 10.0158 16.5255 10.0158 16.5255 10.0158C16.5255 10.0158 15.4499 10.8032 14.4394 12.6999C13.6571 14.1672 13.4941 15.885 13.9505 17.4596C14.472 19.2132 15.6128 20.5373 16.8841 21.3962H16.9167C16.9493 21.3962 16.9819 21.432 16.9819 21.4678C18.0901 22.1835 19.2636 22.5056 20.1111 22.3983C21.2519 21.7541 22.5557 21.3246 24.0551 21.1815C24.2181 21.1815 24.3811 21.1457 24.5441 21.1457C24.3811 19.9289 24.5441 18.3185 25.0982 16.887C26.1738 14.525 28.1948 14.8829 28.1948 14.8829C25.8479 15.9923 25.2938 19.3206 25.5871 21.1815C27.6732 21.3246 29.5312 22.112 30.998 23.5792C32.367 24.9034 33.3449 26.7285 33.7686 28.8042C35.0073 29.5199 36.5393 29.3052 37.6801 28.2316C38.8536 27.1222 39.7337 24.5455 39.1469 22.5414C39.1469 22.5056 40.9397 23.7224 39.9292 26.8717Z" fill="#FE52A7"/>
<g opacity="0.4">
<path d="M10.3975 18.3186C10.3975 18.3186 9.22407 18.2112 8.47437 19.4996C9.7456 19.1059 13.7549 19.4638 15.4172 21.8258C15.4498 20.8595 13.7875 18.8912 13.7875 18.8912L10.3975 18.3186Z" fill="white"/>
</g>
<g opacity="0.4">
<path d="M11.506 30.0211C11.506 30.0211 9.55023 31.3452 8.93091 32.9914C10.9844 31.5957 15.3197 28.8043 19.7853 33.743C18.9052 31.7031 17.1124 29.699 14.8307 29.4127C12.5164 29.1264 11.506 30.0211 11.506 30.0211Z" fill="white"/>
</g>
<g opacity="0.4">
<path d="M17.699 25.6547L17.1775 27.0862C17.1775 27.0862 19.557 24.0442 24.7723 23.579C29.9876 23.1138 34.2902 30.6649 30.9003 36.2835C32.9538 34.7089 33.5405 32.0606 32.9864 28.6608C32.4323 25.261 29.1727 21.8612 25.1308 21.897C21.0564 21.9328 17.699 25.6547 17.699 25.6547Z" fill="white"/>
</g>
<g opacity="0.4">
<path d="M1.49888 33.3135L1.92261 33.063C1.92261 33.063 1.56405 28.7327 4.07392 25.6908C3.78056 25.2256 2.77009 24.1877 2.77009 24.1877C2.77009 24.1877 0.325431 29.8421 1.49888 33.3135Z" fill="white"/>
</g>
<g opacity="0.4">
<path d="M2.21584 21.4677L3.06334 21.6825C3.06334 21.6825 3.03073 17.6027 5.14945 15.2049C7.26817 12.7714 9.84322 12.0914 11.5056 11.9841C10.6255 11.5546 9.38688 10.9105 9.38688 10.9105C9.38688 10.9105 10.1366 8.94216 12.5161 7.65382C14.8956 6.36548 18.8396 7.08122 20.2413 7.94012C21.6429 8.79901 21.6429 9.87263 21.7732 10.982C21.3495 11.5546 19.3938 14.0955 19.8827 16.3144C20.7302 14.3461 22.034 12.2704 24.772 11.3041C27.5101 10.3379 30.6393 10.8747 32.5298 13.4872C34.453 16.0996 34.0944 20.4299 33.1491 21.933C34.4856 20.6446 35.6264 18.569 35.6264 18.569C35.6264 18.569 38.0711 17.7458 40.7113 19.3205C43.3516 20.8951 43.6449 24.1876 43.7427 25.6906C43.8405 27.1937 43.2538 30.4503 41.461 32.1323C43.0908 31.1303 44.4272 30.5935 45.3725 27.8379C46.7415 28.3389 50.0337 30.6293 49.1862 35.2816C49.7729 34.2438 51.6635 28.661 45.4377 25.1896C45.2095 21.5751 44.1339 15.3481 35.7242 15.8133C34.5182 12.163 31.0304 6.32969 24.0223 9.15689C22.0992 6.5802 13.4288 -0.290962 6.81184 11.3041C3.97601 13.2724 1.66171 17.209 2.21584 21.4677Z" fill="white"/>
</g>
<g opacity="0.2">
<path d="M7.72461 40.0771C7.72461 40.0771 8.96324 46.7336 15.6454 45.9821C15.6779 45.2305 14.9609 43.5843 14.9609 43.5843C14.9609 43.5843 9.61516 44.2643 7.72461 40.0771Z" fill="#36087A"/>
</g>
<g opacity="0.2">
<path d="M16.6559 42.1528C16.1344 44.8369 18.6442 48.5946 22.7187 49.4535C26.7931 50.3124 27.4777 48.5946 27.4777 48.5946L26.4346 46.1968C26.4346 46.1968 24.8048 47.4851 22.0668 47.0199C19.3287 46.5547 17.1448 44.1927 16.6559 42.1528Z" fill="#36087A"/>
</g>
<g opacity="0.2">
<path d="M2.34623 30.4861C1.8247 32.3828 2.90036 35.9615 5.57321 37.8225L6.61625 35.3174C6.61625 35.3174 3.45448 34.5301 2.34623 30.4861Z" fill="#36087A"/>
</g>
<path d="M18.3834 23.651C18.416 23.6152 18.4486 23.5794 18.4812 23.5436C18.4486 23.5436 18.3834 23.5078 18.3508 23.5078C18.3834 23.5436 18.3834 23.6152 18.3834 23.651Z" fill="#FE52A7"/>
<path d="M52.9349 23.5081C53.4238 24.188 53.8802 25.0469 54.2387 26.049C54.5647 26.9436 54.7928 27.8383 54.8906 28.733C55.4774 28.9835 56.0967 29.413 56.4878 29.6993C57.4657 28.1962 58.3132 24.9753 57.6287 21.8976C56.9767 18.9989 55.1188 16.7443 52.3482 15.5275C51.6963 17.5674 50.2295 18.3547 50.2295 18.3547C50.8814 17.3526 51.2399 15.9569 51.4029 15.1338L51.5007 14.6328C51.5333 14.4539 52.283 10.5531 49.5775 7.90479C46.8069 5.18496 43.3192 4.75551 41.2005 5.65019C41.8198 8.01215 40.3204 9.98045 40.3204 9.98045C40.9397 7.83321 40.3856 6.25857 40.1248 5.65019C38.3646 2.93035 36.1807 2.10724 34.6813 1.89252C32.6604 1.64201 30.4113 2.32197 29.0097 3.68189C28.7815 3.9324 28.0644 4.7555 27.8688 6.15121C27.8688 6.15121 27.2821 4.7913 27.934 3.43138C24.2507 1.17678 20.7304 2.64405 19.1658 4.03976C20.8933 4.505 22.9469 5.68597 24.2181 7.83321C27.2821 6.83117 30.2483 7.18905 32.5952 8.79948C32.9211 9.0142 33.2145 9.26471 33.5079 9.51522C34.3879 8.29845 34.4857 5.82913 34.1272 5.22074C34.1272 5.22074 35.5288 5.82913 35.1703 8.04794C35.0073 8.90684 34.6813 9.69416 34.2576 10.3025C35.3332 11.5551 36.0829 13.094 36.3437 14.776C38.2342 14.5612 39.9292 14.8475 41.396 15.5633C41.7546 15.5991 42.5695 15.5275 43.1888 14.4539C43.6777 13.595 44.6556 11.412 43.2214 9.33629C43.2214 9.33629 45.1119 9.8373 45.0793 12.3066C45.1119 12.2708 45.1445 12.2708 45.1771 12.2351C47.0677 11.3046 47.9478 13.0582 47.9478 13.0582C47.1981 12.7003 45.5683 12.8434 44.6556 14.096C44.5252 14.4181 44.3622 14.776 44.1666 15.098L44.1341 15.1338C43.7755 16.2074 43.7755 17.0306 43.9385 17.5316C45.4053 19.3209 46.318 21.8261 46.4483 24.6175C49.3494 26.1563 50.9465 28.4825 51.1747 31.596C51.3051 33.3854 51.0118 35.3537 50.2295 37.4651C50.5228 38.6461 50.588 40.3997 50.3598 41.7238C52.6089 41.5091 55.9337 40.2207 56.9442 37.2504C57.8568 34.6021 57.5635 32.1328 56.1945 30.8087C55.9663 30.6297 55.4447 30.2361 54.9232 29.9498C54.9232 30.0929 54.9232 30.2361 54.9232 30.3792C54.9232 33.6001 53.0653 34.6737 53.0653 34.6737C53.0653 34.6379 54.5647 30.3792 53.0653 26.4426C51.7288 22.8281 49.4797 21.7545 47.85 21.9334C47.85 21.9334 49.4472 20.4304 51.794 22.1839C51.9244 22.2913 52.0548 22.4344 52.1526 22.5418C53.1631 22.0408 54.0431 20.9672 54.2061 20.7524C54.3039 20.8598 54.3691 22.506 52.9349 23.5081Z" fill="#FE52A7"/>
<g opacity="0.4">
<path d="M54.5972 29.377L54.9231 31.4168C54.9231 31.4168 57.9545 32.2399 57.2048 36.7491C57.9871 35.2819 58.5087 32.8483 57.5634 31.56C56.6181 30.2716 54.5972 29.377 54.5972 29.377Z" fill="white"/>
</g>
<g opacity="0.4">
<path d="M50.9137 22.4699C50.9137 22.4699 48.9254 21.5752 47.9475 22.0762C50.6204 23.4362 53.8473 26.2634 53.1628 34.8165C54.6296 32.8482 54.7274 27.9096 53.3584 25.476C51.9568 23.0425 50.9137 22.4699 50.9137 22.4699Z" fill="white"/>
</g>
<g opacity="0.4">
<path d="M18.3508 4.36152L20.8607 4.7194C20.8607 4.7194 24.218 2.50059 27.6406 4.75519L27.8688 6.18668C27.8688 6.18668 28.8466 4.00365 31.4217 3.25212C33.9968 2.50059 37.3541 3.25212 38.9839 5.54251C40.6137 7.8329 40.3529 10.0159 40.3529 10.0159C40.3529 10.0159 41.396 7.58238 41.3634 6.974C43.2213 6.4014 46.0246 6.54455 48.4692 8.44128C50.9139 10.338 51.7614 14.7041 50.2294 18.3902C51.4028 16.8513 51.794 16.7797 51.794 16.7797C51.794 16.7797 54.9232 17.2092 56.7811 21.6468C58.6391 26.0844 56.1292 30.1642 56.1292 30.1642L56.7485 30.4505C56.7485 30.4505 59.8777 26.156 58.1501 21.3605C56.4226 16.565 52.3481 14.9188 52.3481 14.9188C52.3481 14.9188 53.4238 8.47707 48.6974 6.54455C43.971 4.57625 40.5811 4.93412 40.5811 4.93412C40.5811 4.93412 38.5601 1.06909 35.2028 1.06909C31.8454 1.06909 28.6185 2.96582 28.6185 2.96582C28.6185 2.96582 21.9364 -0.756063 18.3508 4.36152Z" fill="white"/>
</g>
<g opacity="0.2">
<path d="M38.5925 44.3359C38.5925 44.3359 38.1688 50.0619 32.0408 49.883C26.1084 49.704 26.4343 45.9106 26.4343 45.9106C26.4343 45.9106 27.7056 47.9505 30.8999 48.2725C34.0943 48.5946 37.4191 46.7337 38.5925 44.3359Z" fill="#36087A"/>
</g>
<g opacity="0.2">
<path d="M47.9478 41.8308C47.9478 41.8308 47.2306 46.9842 42.7976 47.9862C38.0387 49.0599 38.1691 48.4515 38.1691 48.4515C38.1691 48.4515 39.6685 45.3022 39.7988 44.157C40.4182 45.9106 45.3727 47.6641 47.9478 41.8308Z" fill="#36087A"/>
</g>
<g opacity="0.2">
<path d="M13.0706 38.9322C13.0706 38.9322 12.0927 38.3596 12.1253 36.5344C12.9402 37.8228 14.8959 39.1111 17.0147 36.9639C16.1998 38.1806 15.6456 40.0416 15.6456 40.0416L13.0706 38.9322Z" fill="#36087A"/>
</g>
<g opacity="0.2">
<path d="M56.781 34.4587C56.781 34.4587 56.944 40.2563 52.022 41.5088L49.9033 42.4751V39.0395C49.9033 39.0395 55.412 40.1131 56.781 34.4587Z" fill="#36087A"/>
</g>
<g opacity="0.2">
<path d="M53.3262 22.3984L54.304 20.8237C54.304 20.8237 53.7825 24.474 55.1515 25.8697C56.5531 27.2654 57.3354 24.9035 57.3354 24.9035C57.3354 24.9035 57.1724 27.3728 56.0642 29.3769C55.4775 29.5201 54.5974 29.3769 54.5974 29.3769L52.1201 23.2931L53.3262 22.3984Z" fill="#36087A"/>
</g>
<g opacity="0.2">
<path d="M48.9255 33.3491C48.9255 33.3491 49.0233 40.3634 43.9709 39.8982C46.22 38.7888 48.2736 37.6078 48.9255 33.3491Z" fill="#36087A"/>
</g>
<g opacity="0.2">
<path d="M38.8534 28.1244L40.1898 25.655C40.1898 25.655 39.9943 29.4485 36.9303 31.3094C33.8663 33.1704 35.4961 37.7154 39.8639 36.928C38.9186 38.1806 38.3645 38.789 36.8651 39.1111C35.3657 39.4331 33.7033 37.8227 33.0514 37.6438C32.3995 37.4649 29.9222 38.0017 28.9443 37.7154C31.0956 37.0712 32.2691 35.8544 33.084 34.4945C33.8989 33.0988 33.6381 29.4843 33.6381 29.4843C33.6381 29.4843 36.8977 30.4147 38.8534 28.1244Z" fill="#36087A"/>
</g>
<g opacity="0.2">
<path d="M23.2727 36.5344C23.3379 40.0416 24.7395 41.1152 26.4345 42.4751C28.1295 43.835 32.2365 43.9066 33.4751 41.2583C32.5299 42.0099 29.8244 42.4751 26.8908 41.0794C24.7395 40.0416 23.7616 37.9659 23.2727 36.5344Z" fill="#36087A"/>
</g>
<g opacity="0.2">
<path d="M13.7875 18.8911C13.7875 18.8911 14.6675 20.0721 14.635 21.0384C14.635 21.0384 17.1448 23.5077 14.8631 27.0148C13.4289 29.1979 11.245 28.1242 9.64782 31.0588C9.22408 31.8461 12.9074 29.0905 15.3521 29.4842C16.2647 26.8001 19.6547 23.5435 19.6547 23.5435L13.7875 18.8911Z" fill="#36087A"/>
</g>
<g opacity="0.2">
<path d="M3.78073 18.3184C3.2592 20.573 3.2592 24.0443 5.99724 26.2989C8.73527 28.5535 11.2777 25.7979 11.2777 25.7979C11.2777 25.7979 3.91112 26.12 3.78073 18.3184Z" fill="#36087A"/>
</g>
<g opacity="0.2">
<path d="M24.7071 30.4865L27.4777 30.057C27.4777 30.057 26.4673 28.4466 23.2729 29.4487C20.0785 30.4507 16.8516 30.2718 17.3079 26.8362C16.1996 27.6951 15.6455 29.8065 15.6455 29.8065C15.6455 29.8065 18.4813 29.9855 19.8177 33.7074C20.4371 34.8525 21.0564 35.3178 21.6105 38.4313C21.9039 35.2462 24.7071 30.4865 24.7071 30.4865Z" fill="#36087A"/>
</g>
<g opacity="0.2">
<path d="M14.6024 14.4893C14.2439 16.9228 14.8958 19.75 17.5034 21.8257C20.0785 23.9013 21.5453 22.2551 21.5453 22.2551L24.9353 21.5036L25.0982 16.887C25.0982 16.887 24.3159 19.1774 20.7304 19.8931C17.1775 20.6089 14.9284 18.0322 14.6024 14.4893Z" fill="#36087A"/>
</g>
<g opacity="0.2">
<path d="M26.7605 17.4597C26.7605 17.4597 25.6849 20.3585 26.7605 21.8258C27.8362 23.293 30.1505 22.8278 30.1505 22.8278C30.1505 22.8278 26.6302 21.9689 26.7605 17.4597Z" fill="#36087A"/>
</g>
<g opacity="0.2">
<path d="M38.5275 25.1539C38.5275 25.1539 38.3645 28.2674 35.4635 29.1979C34.9093 29.4842 33.4751 29.1979 33.4751 29.1979L31.8779 24.5813C31.8779 24.5813 33.0188 26.4422 34.5508 26.8717C36.0828 27.2654 37.7778 27.0148 38.5275 25.1539Z" fill="#36087A"/>
</g>
<g opacity="0.2">
<path d="M21.7734 6.04373L21.8712 5.36377C21.8712 5.36377 25.1308 8.22676 27.8688 6.18688C27.9992 7.04577 31.4544 9.19301 34.2576 7.43944C34.5835 7.97625 35.2355 7.51101 35.2355 7.51101C35.2355 7.51101 35.0073 9.8014 36.1807 11.6623C37.3542 13.5233 42.4391 16.1358 43.6451 13.5949C44.3948 12.6644 44.623 11.054 43.2214 9.40774C44.6556 9.5151 46.8721 10.0161 47.9478 13.1654C47.1329 12.3065 44.3948 12.8433 43.8733 14.4895C43.3518 16.1715 42.1457 17.2094 42.1457 17.2094L35.6918 15.7779C35.6918 15.7779 34.6487 9.01407 28.1622 8.54884C26.565 8.87093 23.8922 9.37195 23.8922 9.37195L21.7734 6.04373Z" fill="#36087A"/>
</g>
<g opacity="0.2">
<path d="M45.2748 14.4534C44.6554 15.4912 44.1013 16.9943 44.7206 19.7857C45.3399 22.5771 47.9476 22.0403 47.9476 22.0403L49.5448 21.4319C49.5448 21.4319 47.915 21.6108 46.7416 20.1436C45.5681 18.7479 45.177 16.9943 45.2748 14.4534Z" fill="#36087A"/>
</g>
<path d="M59.291 21.4678C58.5413 18.068 56.4226 15.4198 53.326 13.9525C53.4238 12.2705 53.2608 9.01384 50.7509 6.54452C47.9151 3.75311 43.971 2.71528 40.9722 3.7889C38.9513 1.14063 36.6044 0.281735 34.9095 0.0670108C32.6929 -0.219288 30.3461 0.424883 28.5859 1.74901C23.6639 -1.14976 18.6768 1.35536 17.1774 3.75311L17.1448 3.7889C16.9492 3.75311 16.7863 3.75311 16.5907 3.75311C10.6909 3.32366 7.13794 7.11712 6.16007 11.0179C2.77012 13.0578 1.66187 16.0282 1.33592 18.2112C1.00996 20.3584 1.3359 22.3983 1.79224 23.794C0.683991 25.7981 -0.652419 29.7347 0.358047 33.8503C1.23813 37.4648 4.04134 39.612 5.21479 40.3635C5.8993 43.5128 7.52909 45.8748 9.84338 47.0558C12.4836 48.3799 14.8631 48.0936 16.0366 47.8431C17.7641 49.8472 20.0458 51.0997 22.5231 51.3502C24.4462 51.565 26.3694 51.1713 27.7384 50.2766C29.629 51.4218 31.4869 51.8871 33.1167 51.8871C35.268 51.8871 37.1259 51.0639 38.4624 49.8472C40.3855 50.205 42.3413 50.1335 44.0362 49.6325C46.4483 48.9167 48.3063 47.3779 49.3819 45.159C49.6101 44.6938 49.8057 44.2286 49.9686 43.7991C52.7719 43.6918 57.1723 42.1529 58.5739 38.0732C59.5844 35.1744 59.3562 32.383 58.085 30.4505C59.291 28.3032 60.0081 24.6887 59.291 21.4678ZM49.5123 33.1703C49.5123 33.2061 49.5123 33.2061 49.5123 33.2419C49.5123 33.385 49.4797 33.5282 49.4797 33.6355C49.4797 33.6713 49.4797 33.7071 49.4797 33.7429C49.4797 33.886 49.4471 33.9934 49.4145 34.1365C49.4145 34.1723 49.4145 34.1723 49.4145 34.2081C49.3493 34.6734 49.2515 35.1386 49.0886 35.6038C49.0886 35.6038 49.0886 35.6396 49.056 35.6396C49.0234 35.7828 48.9582 35.8901 48.9256 36.0333C48.9256 36.0691 48.893 36.1048 48.893 36.1048C48.8604 36.2122 48.7952 36.3196 48.7626 36.4627C48.7626 36.4985 48.73 36.5343 48.73 36.5343C48.6648 36.6774 48.6322 36.7848 48.567 36.8922V36.928C48.404 37.25 48.2085 37.5721 47.9803 37.8942C47.9477 37.9658 47.8825 38.0374 47.8499 38.1089C47.1328 39.0394 45.8616 40.113 43.9384 39.9341C43.9384 39.9341 45.992 41.0435 47.361 40.113C47.6869 39.8625 47.9803 39.612 48.2737 39.2899C48.4041 39.1468 48.5018 39.0036 48.6322 38.8605C48.6974 38.7531 48.7626 38.6815 48.8604 38.5742C49.0886 39.7194 49.1864 41.7235 47.9477 44.2286C46.1876 47.7715 42.4064 48.5231 39.1143 48.022C39.2447 47.8073 39.3751 47.5926 39.4728 47.3421C39.538 47.2347 39.5706 47.0916 39.6358 46.9484C40.5159 44.5507 39.0165 42.2961 39.0165 42.2961C39.2773 44.3002 39.0491 45.9821 38.3972 47.1631C38.2668 47.3779 38.1364 47.5926 37.9734 47.8073L37.7779 48.022C35.9199 50.1335 32.1714 51.0282 28.0318 48.2367C27.9014 48.1294 27.608 47.8789 27.2821 47.4852C26.9561 47.0916 26.6301 46.5547 26.4672 45.9464C26.4672 45.9464 26.2716 47.0558 26.5976 48.022C26.6627 48.2368 26.7605 48.4515 26.8909 48.6662C24.7396 49.9903 20.0458 50.2408 16.884 46.0179C16.6885 45.6959 16.4929 45.3738 16.3625 45.0517C15.1565 42.0813 16.4929 37.9658 17.9271 36.6059C17.9271 36.6059 16.1017 36.9995 15.2869 39.5404C12.8096 39.1826 12.2554 37.2143 12.1577 36.6059C12.1577 36.6059 11.408 38.1447 12.9726 39.7909C13.5267 40.1846 14.2112 40.5067 15.0261 40.6498C14.7653 42.2245 14.8305 43.9065 15.3521 45.3738C15.4498 45.5885 15.515 45.8032 15.6454 46.0179C14.6675 46.2327 12.7444 46.4116 10.5605 45.338C8.05062 44.0854 7.10533 41.4372 6.77938 39.3973C6.71419 39.0394 6.6816 38.6457 6.64901 38.2521C6.55122 37.3216 6.55122 36.3196 6.64901 35.3175C6.64901 35.3175 5.73632 35.9259 5.60594 37.5006C5.57335 37.7511 5.57335 38.0374 5.60594 38.3595C5.60594 38.3595 5.60594 38.3594 5.60594 38.3952C4.49769 37.5721 2.63974 35.8543 2.02042 33.3492C1.23812 30.1642 2.1834 26.8359 3.16127 24.9392C3.29165 25.1181 3.45463 25.2971 3.61761 25.5118C4.00876 25.9413 4.4977 26.3707 5.08442 26.7286C5.50816 26.9791 6.02968 27.2296 6.6164 27.4085C7.10533 27.5517 7.69206 27.659 8.31138 27.659C10.3649 27.4801 11.245 25.8339 11.245 25.8339C7.43129 27.5517 5.14959 25.7265 4.17172 24.5455C3.81317 24.1161 3.6176 23.7582 3.58501 23.6866C3.22645 22.8278 2.70492 20.7521 3.03088 18.4975C3.42202 15.8134 4.92142 13.7378 7.43129 12.3779L7.4639 12.3421C7.59428 12.2705 7.92024 12.1631 8.34398 12.0558C9.19147 11.841 10.4301 11.6621 11.5057 11.9484C11.5057 11.9484 10.6909 10.6958 8.66994 10.8748C8.44177 10.9106 8.18099 10.9464 7.92023 10.9821C8.8655 7.90443 11.7339 5.22039 16.4603 5.57826C19.9154 5.82877 21.48 6.93818 22.1645 7.83286C22.7187 8.51282 22.849 9.22857 22.8816 9.76538C22.6861 9.90853 22.4579 10.0517 22.1971 10.2664C21.7082 10.6601 21.1541 11.1969 20.5999 11.8768C18.8724 14.0956 19.8176 16.3145 19.8176 16.3145C19.948 14.3819 21.0563 12.8431 22.0668 11.841C22.6861 11.2327 23.3054 10.8032 23.6313 10.5885C25.3263 9.55066 28.814 8.69176 31.6173 10.6601C34.1271 12.4136 34.4857 15.0977 34.6813 16.5292L34.7139 16.7439C34.7139 16.9228 34.7139 17.746 34.5183 18.7122C34.3227 19.8574 33.899 21.1815 33.1167 21.9331C33.1167 21.9331 34.9746 21.6468 35.594 18.5691C35.6265 18.3185 35.6591 18.1038 35.6917 17.8891C35.7243 17.567 35.7569 17.2807 35.7569 17.0302C36.9956 16.5292 41.1026 16.386 43.2539 20.0006C44.134 21.4678 44.5903 23.4003 44.5903 25.4044C44.5903 25.7981 44.5578 26.1918 44.5252 26.5854C44.2318 29.1979 43.091 31.3451 41.4612 32.204C41.4612 32.204 43.7103 32.204 44.9815 29.341C45.2423 28.6253 45.4378 27.838 45.5356 26.9791C45.5682 26.7286 45.6008 26.4781 45.6008 26.2275C46.6439 26.6928 48.6648 27.9811 49.3167 30.8441C49.3493 30.9873 49.3819 31.1304 49.4145 31.2736C49.4145 31.3093 49.4145 31.3809 49.4471 31.4167C49.4471 31.5241 49.4797 31.6314 49.4797 31.7388C49.4797 31.7746 49.4797 31.8462 49.5123 31.8819C49.5123 31.9893 49.5449 32.0967 49.5449 32.204C49.5449 32.2398 49.5449 32.3114 49.5449 32.3472C49.5449 32.4903 49.5449 32.6335 49.5449 32.7766C49.5449 32.8482 49.5123 32.9914 49.5123 33.1703ZM54.3039 20.8594C54.1409 21.11 53.2608 22.1836 52.2503 22.6488C52.1199 22.5057 52.0222 22.3983 51.8918 22.2909C49.5449 20.5732 47.9477 22.0404 47.9477 22.0404C49.5775 21.8615 51.8266 22.9351 53.163 26.5496C54.6298 30.4862 53.163 34.7449 53.163 34.7807C53.163 34.7807 55.021 33.7071 55.021 30.4862C55.021 30.3431 55.021 30.1999 55.021 30.0568C55.5425 30.3789 56.064 30.7367 56.2922 30.9157C57.6612 32.2398 57.9546 34.7091 57.0419 37.3574C56.0314 40.3278 52.7067 41.6161 50.4576 41.8308C50.6857 40.5067 50.588 38.7531 50.3272 37.5721C51.1095 35.4607 51.4354 33.4924 51.2725 31.703C51.0117 28.6253 49.4145 26.2633 46.5461 24.7245C46.4157 21.9331 45.5356 19.3922 44.0362 17.6386C43.9059 17.1376 43.8733 16.2787 44.2318 15.2408L44.2644 15.2051C44.46 14.883 44.6229 14.5251 44.7533 14.203C45.666 12.9862 47.2958 12.8073 48.0455 13.1652C48.0455 13.1652 47.1654 11.4116 45.2749 12.3421C45.2423 12.3421 45.2097 12.3779 45.1771 12.4136C45.2097 9.94431 43.3191 9.44329 43.3191 9.44329C44.7533 11.519 43.7755 13.702 43.2865 14.5609C42.6672 15.6345 41.8197 15.7061 41.4938 15.6703C40.027 14.9545 38.332 14.6682 36.4414 14.883C36.1481 13.201 35.431 11.6621 34.3553 10.4096C34.8117 9.80117 35.105 8.97806 35.268 8.15495C35.594 5.93613 34.2249 5.32775 34.2249 5.32775C34.5509 5.97192 34.4857 8.40546 33.6056 9.62223C33.3123 9.37171 33.0189 9.1212 32.6929 8.90648C30.3134 7.26026 27.3473 6.90239 24.3159 7.94022C23.0446 5.79298 20.9911 4.612 19.2635 4.14677C20.7955 2.71528 24.3484 1.24799 28.0318 3.53838C27.3798 4.8983 27.9666 6.25822 27.9666 6.25822C28.1621 4.86251 28.8792 4.03941 29.1074 3.7889C30.5416 2.42898 32.7581 1.71323 34.7791 1.99953C36.2785 2.21425 38.4298 3.00157 40.2225 5.7572C40.5159 6.36558 41.0374 7.94022 40.4181 10.0875C40.4181 10.0875 41.9175 8.11916 41.2982 5.7572C43.4169 4.86252 46.9047 5.32775 49.6753 8.0118C52.3807 10.6601 51.631 14.5609 51.5984 14.7398L51.5006 15.2408C51.3377 16.0639 50.9791 17.4597 50.3272 18.4617C50.3272 18.4617 51.794 17.6386 52.4459 15.6345C55.2165 16.8513 57.0745 19.1059 57.7264 22.0046C58.4109 25.0824 57.5634 28.3032 56.5856 29.8063C56.1618 29.4842 55.5425 29.0905 54.9884 28.84C54.8906 27.9811 54.6624 27.0507 54.3365 26.156C53.9453 25.1539 53.5216 24.295 53.0326 23.6151C54.3691 22.5057 54.3039 20.8594 54.3039 20.8594Z" fill="#36087A"/>
<path d="M27.2496 43.2983C24.9679 42.5468 23.0447 40.3995 22.7513 38.2881C22.458 36.105 22.8817 33.9578 23.9574 32.3832C24.8375 31.0948 26.0761 30.3075 27.5103 30.0928C27.5103 30.0928 24.9679 29.0191 23.0121 31.6316C21.7735 33.4568 21.2519 35.9619 21.6105 38.5028C21.969 41.1153 24.2181 43.6562 26.9562 44.5508C27.6407 44.7656 28.3578 44.9087 29.0423 44.9087C33.4753 44.3719 33.4753 41.2584 33.4753 41.2584C31.161 44.0498 28.586 43.7277 27.2496 43.2983Z" fill="#36087A"/>
<path d="M39.147 22.5058C39.7011 24.5457 38.8537 27.0866 37.6802 28.196C36.572 29.2696 35.04 29.4843 33.7687 28.7686C33.3124 26.7287 32.3671 24.9035 30.9981 23.5436C29.5313 22.1121 27.6733 21.289 25.5872 21.1459C25.2938 19.2849 25.848 15.9925 28.1949 14.8473C28.1949 14.8473 26.1739 14.4894 25.0983 16.8514C24.5116 18.2829 24.3812 19.9291 24.5441 21.1101C24.3812 21.1101 24.2182 21.1101 24.0552 21.1459C22.5558 21.289 21.252 21.7185 20.1111 22.3626C19.2637 22.5058 18.0902 22.1837 16.982 21.4322C16.9494 21.3964 16.9168 21.3964 16.9168 21.3606H16.8842C15.6455 20.5017 14.4721 19.1776 13.9506 17.424C13.4942 15.8493 13.6572 14.0958 14.4395 12.6643C15.45 10.8033 16.5256 9.98022 16.5256 9.98022C16.5256 9.98022 14.4721 9.98023 13.429 11.9843C12.4838 13.7379 12.2882 15.8851 12.8423 17.8177C12.8423 17.8534 12.8749 17.8892 12.8749 17.925C11.897 17.5671 10.9518 17.5314 10.2347 17.6029C8.44189 17.925 8.44189 19.4281 8.44189 19.4281C8.76785 18.9986 11.5385 17.925 13.6572 19.6428C14.3417 20.788 15.287 21.7543 16.2974 22.4342L16.33 22.47C17.1123 22.971 17.4057 23.7583 17.1775 24.7962C16.1345 26.0845 15.45 27.516 15.1566 28.7328C14.9284 28.697 14.7003 28.697 14.5047 28.697C13.5594 28.6612 12.6793 28.8401 11.8318 29.1622C8.86563 30.5579 8.89822 32.9199 8.89822 32.9199C9.87609 31.4168 12.0926 29.9138 14.4721 29.9853C16.5908 30.0569 18.4162 31.3095 19.7852 33.6714C19.7852 33.6714 19.7852 30.8084 16.9494 29.2696C16.7212 29.1622 16.5256 29.0907 16.33 29.0191C16.9168 26.6213 19.5244 22.7921 24.153 22.3984C29.5639 21.9332 32.4323 26.1203 32.856 30.2716C33.1168 32.9557 32.2693 34.6377 31.5196 35.5682C30.6069 36.7134 29.3031 37.3575 27.9667 37.3933C27.9667 37.3933 30.0528 38.5385 32.3997 36.4271C32.6279 36.1408 32.856 35.7829 33.0516 35.4608C33.7035 36.9639 34.7792 38.0017 36.1482 38.5027C38.8862 39.469 39.8641 36.8923 39.8641 36.8923C39.0492 37.6438 37.6802 37.8586 36.4742 37.4291C35.1052 36.9281 34.1273 35.7471 33.6709 34.0293C34.0295 32.8841 34.1599 31.5958 34.0295 30.2358C34.4532 30.379 34.9096 30.4506 35.3333 30.4506C36.4416 30.4506 37.5498 30.0211 38.4625 29.1622C39.0492 28.6254 39.5707 27.8023 39.9293 26.8361C40.9398 23.7226 39.147 22.5058 39.147 22.5058ZM18.3836 23.651C18.3836 23.6152 18.3836 23.5794 18.351 23.5078C18.3836 23.5078 18.4488 23.5436 18.4814 23.5436C18.4814 23.5794 18.4162 23.6152 18.3836 23.651Z" fill="#36087A"/>
</svg>
