<svg width="436" height="41" viewBox="0 0 436 41" fill="none" xmlns="http://www.w3.org/2000/svg">
<rect x="221.156" y="3.13672" width="197.127" height="33.6008" transform="rotate(-0.56034 221.156 3.13672)" fill="#FFE7C0"/>
<path d="M232.893 19.9154L221.097 38.066L220.486 2.25036L232.893 19.9154Z" fill="white"/>
<rect width="23.9335" height="23.7179" transform="matrix(0.715018 -0.699106 0.728554 0.684988 400.914 17.9434)" fill="#FFE7C0"/>
<rect width="23.9335" height="23.7179" transform="matrix(0.715018 -0.699106 0.728554 0.684988 400.914 17.9434)" fill="#FFE7C0"/>
<path d="M257.923 26.216C256.927 26.2358 256 26.0921 255.142 25.7851C254.296 25.4778 253.555 25.0364 252.919 24.4609C252.296 23.8852 251.802 23.2048 251.439 22.4199C251.087 21.6347 250.902 20.7742 250.883 19.8384C250.865 18.9026 251.016 18.0354 251.336 17.2369C251.668 16.4382 252.14 15.7386 252.753 15.1384C253.365 14.5381 254.088 14.0677 254.921 13.7271C255.754 13.3865 256.663 13.2065 257.647 13.1869C258.643 13.1672 259.558 13.3111 260.392 13.6186C261.238 13.9259 261.973 14.3674 262.597 14.9431C263.232 15.5186 263.732 16.1989 264.095 16.9838C264.459 17.7567 264.65 18.6171 264.669 19.5649C264.687 20.5008 264.531 21.374 264.199 22.1848C263.866 22.9835 263.394 23.683 262.782 24.2833C262.181 24.8713 261.464 25.3356 260.631 25.6762C259.81 26.0166 258.907 26.1965 257.923 26.216ZM257.856 23.7329C258.42 23.7217 258.934 23.6155 259.398 23.4142C259.874 23.2127 260.289 22.9285 260.641 22.5614C260.994 22.1943 261.262 21.7629 261.444 21.2672C261.638 20.7713 261.729 20.2234 261.717 19.6235C261.705 19.0236 261.593 18.4797 261.379 17.9919C261.177 17.5038 260.893 17.0833 260.526 16.7305C260.171 16.3775 259.751 16.1098 259.267 15.9273C258.784 15.7449 258.26 15.6593 257.696 15.6705C257.132 15.6816 256.612 15.788 256.136 15.9895C255.672 16.1907 255.264 16.4749 254.911 16.8419C254.558 17.209 254.284 17.6405 254.09 18.1364C253.908 18.6322 253.823 19.18 253.835 19.7798C253.846 20.3677 253.953 20.9117 254.155 21.4118C254.369 21.8997 254.653 22.3201 255.008 22.6731C255.375 23.0259 255.801 23.2935 256.285 23.476C256.768 23.6584 257.292 23.7441 257.856 23.7329ZM269.581 25.7687L269.365 14.8809L270.044 15.5335L265.365 15.6264L265.318 13.2508L276.242 13.0341L276.289 15.4097L271.61 15.5025L272.245 14.8238L272.461 25.7116L269.581 25.7687ZM284.499 25.4728L284.27 13.9551L285.555 15.1899L281.776 15.2648L281.729 12.9253L287.164 12.8175L287.414 25.415L284.499 25.4728ZM295.006 25.4805C293.974 25.5009 293.045 25.2673 292.219 24.7796C291.393 24.2799 290.737 23.5487 290.25 22.5862C289.762 21.6237 289.505 20.4526 289.478 19.0728C289.45 17.6931 289.661 16.5127 290.11 15.5316C290.558 14.5505 291.186 13.7999 291.991 13.2798C292.797 12.7478 293.716 12.4715 294.747 12.451C295.791 12.4303 296.72 12.6699 297.534 13.1699C298.36 13.6576 299.017 14.3827 299.504 15.3453C299.991 16.3078 300.248 17.4789 300.276 18.8586C300.303 20.2384 300.092 21.4188 299.644 22.3999C299.195 23.381 298.568 24.1375 297.762 24.6696C296.969 25.1895 296.05 25.4598 295.006 25.4805ZM294.957 23.0149C295.449 23.0052 295.872 22.8588 296.227 22.5757C296.593 22.2924 296.872 21.8487 297.064 21.2448C297.268 20.6406 297.361 19.8646 297.342 18.9168C297.323 17.969 297.2 17.1973 296.972 16.6017C296.756 16.0059 296.46 15.5737 296.082 15.3051C295.717 15.0363 295.288 14.9068 294.796 14.9165C294.316 14.9261 293.893 15.0725 293.527 15.3558C293.172 15.6389 292.893 16.0825 292.689 16.6867C292.497 17.2906 292.41 18.0665 292.429 19.0143C292.448 19.9621 292.565 20.7339 292.781 21.3298C293.009 21.9254 293.306 22.3576 293.671 22.6264C294.048 22.8949 294.477 23.0245 294.957 23.0149ZM316.102 23.5497L315.925 14.6235L311.606 14.7091L311.588 16.5458C311.568 17.3264 311.529 18.0653 311.47 18.7626C311.424 19.4597 311.341 20.0974 311.22 20.6759C311.099 21.2425 310.935 21.7258 310.727 22.126C310.531 22.526 310.278 22.813 309.97 22.9872L306.849 22.653C307.281 22.6565 307.632 22.4995 307.902 22.1821C308.183 21.8644 308.403 21.422 308.559 20.8548C308.716 20.2755 308.823 19.6013 308.879 18.832C308.948 18.0625 308.991 17.2275 309.01 16.3269L309.075 12.3829L318.757 12.1908L318.982 23.4926L316.102 23.5497ZM306.534 27.6463L306.453 22.6609L320.724 22.3778L320.823 27.3628L318.123 27.4164L318.072 24.8069L309.181 24.9832L309.233 27.5927L306.534 27.6463ZM328.767 24.8108C327.771 24.8305 326.844 24.6869 325.986 24.3799C325.139 24.0726 324.398 23.6312 323.763 23.0557C323.139 22.4799 322.646 21.7996 322.282 21.0146C321.931 20.2295 321.745 19.369 321.727 18.4331C321.708 17.4973 321.859 16.6302 322.179 15.8317C322.512 15.0329 322.984 14.3334 323.596 13.7331C324.208 13.1329 324.931 12.6625 325.764 12.3219C326.598 11.9813 327.506 11.8012 328.49 11.7817C329.486 11.7619 330.401 11.9058 331.235 12.2133C332.082 12.5206 332.817 12.9621 333.44 13.5379C334.076 14.1134 334.575 14.7936 334.939 15.5786C335.302 16.3515 335.493 17.2119 335.512 18.1597C335.531 19.0955 335.374 19.9688 335.042 20.7795C334.71 21.5783 334.238 22.2778 333.625 22.878C333.025 23.4661 332.308 23.9304 331.475 24.271C330.653 24.6113 329.751 24.7913 328.767 24.8108ZM328.699 22.3276C329.263 22.3164 329.777 22.2102 330.241 22.009C330.718 21.8075 331.132 21.5232 331.485 21.1562C331.838 20.7891 332.105 20.3577 332.287 19.862C332.481 19.366 332.573 18.8181 332.561 18.2182C332.549 17.6184 332.436 17.0745 332.222 16.5866C332.021 16.0985 331.736 15.6781 331.369 15.3253C331.014 14.9723 330.595 14.7045 330.111 14.5221C329.627 14.3397 329.103 14.254 328.54 14.2652C327.976 14.2764 327.456 14.3827 326.98 14.5842C326.515 14.7855 326.107 15.0696 325.754 15.4367C325.401 15.8038 325.128 16.2353 324.934 16.7312C324.752 17.2269 324.666 17.7747 324.678 18.3746C324.69 18.9625 324.797 19.5065 324.999 20.0066C325.212 20.4944 325.497 20.9149 325.852 21.2679C326.219 21.6207 326.644 21.8883 327.128 22.0707C327.612 22.2532 328.136 22.3388 328.699 22.3276ZM344.059 24.2914L343.831 12.7737L345.116 14.0084L341.336 14.0834L341.29 11.7438L346.725 11.636L346.975 24.2336L344.059 24.2914ZM354.387 24.3026C353.331 24.3235 352.404 24.1859 351.606 23.8897C350.808 23.5814 350.181 23.1438 349.725 22.5767C349.27 21.9976 349.034 21.3181 349.019 20.5383C349.003 19.7585 349.206 19.0943 349.627 18.5458C350.06 17.9851 350.67 17.559 351.456 17.2673C352.243 16.9637 353.17 16.8013 354.237 16.7801C355.317 16.7587 356.256 16.8841 357.053 17.1563C357.863 17.4163 358.489 17.818 358.932 18.3613C359.386 18.8924 359.621 19.5478 359.637 20.3277C359.652 21.1075 359.444 21.7958 359.012 22.3925C358.579 22.9772 357.964 23.4395 357.167 23.7794C356.381 24.107 355.454 24.2814 354.387 24.3026ZM354.344 22.161C355.076 22.1465 355.649 21.9731 356.062 21.6408C356.488 21.3083 356.695 20.8601 356.684 20.2962C356.672 19.7324 356.448 19.2987 356.01 18.9954C355.583 18.6798 355.004 18.5292 354.272 18.5437C353.552 18.558 352.986 18.7313 352.572 19.0635C352.159 19.3838 351.957 19.8259 351.968 20.3898C351.98 20.9537 352.198 21.3934 352.625 21.709C353.051 22.0246 353.624 22.1753 354.344 22.161ZM354.267 18.2558C353.295 18.2751 352.44 18.16 351.703 17.9105C350.978 17.6609 350.407 17.2881 349.989 16.7923C349.583 16.2843 349.372 15.6763 349.358 14.9685C349.344 14.2246 349.535 13.5847 349.932 13.0487C350.33 12.5007 350.891 12.0755 351.617 11.773C352.343 11.4586 353.18 11.292 354.128 11.2732C355.1 11.2539 355.949 11.3871 356.674 11.6727C357.412 11.9462 357.99 12.3488 358.409 12.8806C358.839 13.4001 359.062 14.0319 359.076 14.7757C359.091 15.4836 358.899 16.0995 358.501 16.6235C358.115 17.1352 357.559 17.5303 356.832 17.8088C356.106 18.0873 355.25 18.2363 354.267 18.2558ZM354.233 16.5461C354.845 16.534 355.322 16.3865 355.664 16.1036C356.019 15.8206 356.191 15.4391 356.182 14.9592C356.172 14.4553 355.978 14.069 355.6 13.8004C355.235 13.5316 354.758 13.4031 354.171 13.4147C353.595 13.4262 353.129 13.5734 352.775 13.8565C352.421 14.1396 352.248 14.5331 352.258 15.037C352.268 15.5169 352.449 15.8914 352.803 16.1604C353.156 16.4294 353.633 16.558 354.233 16.5461ZM367.134 24.0317C366.918 24.036 366.69 24.0225 366.449 23.9913C366.221 23.9598 365.968 23.9168 365.69 23.8623L365.822 21.3932C365.99 21.4379 366.165 21.4584 366.345 21.4549C366.837 21.4451 367.217 21.2395 367.485 20.8381C367.753 20.4248 367.939 19.8389 368.044 19.0807C368.149 18.3225 368.209 17.4031 368.223 16.3226L368.302 11.208L377.984 11.016L378.234 23.6135L375.355 23.6706L375.139 12.7828L375.818 13.4354L370.257 13.5457L370.837 12.8321L370.795 16.1636C370.783 17.4001 370.721 18.4995 370.608 19.4619C370.495 20.4244 370.307 21.2442 370.045 21.9216C369.782 22.5989 369.414 23.1163 368.941 23.4738C368.468 23.8312 367.866 24.0172 367.134 24.0317ZM383.913 15.9754L389.977 15.8551L390.022 18.1226L383.958 18.2429L383.913 15.9754ZM384.231 21.1541L391.088 21.0181L391.134 23.3576L381.38 23.5511L381.13 10.9536L390.651 10.7647L390.697 13.1043L384.074 13.2356L384.231 21.1541ZM396.207 23.257L395.991 12.3692L396.67 13.0218L391.991 13.1146L391.944 10.7391L402.867 10.5224L402.915 12.8979L398.236 12.9908L398.87 12.312L399.086 23.1999L396.207 23.257Z" fill="#E2874D"/>
<rect y="4.25562" width="197.127" height="33.6008" transform="rotate(-0.56034 0 4.25562)" fill="#DBC9F5"/>
<rect width="23.9335" height="23.7179" transform="matrix(0.715018 -0.699106 0.728554 0.684988 179.758 19.0623)" fill="#DBC9F5"/>
<path d="M27.3271 27.9372C26.3313 27.9566 25.4043 27.8127 24.5461 27.5055C23.6999 27.198 22.9591 26.7564 22.3238 26.1807C21.7004 25.6048 21.207 24.9243 20.8435 24.1393C20.4921 23.354 20.3072 22.4934 20.2889 21.5576C20.2706 20.6218 20.4217 19.7547 20.7421 18.9563C21.0746 18.1576 21.547 17.4582 22.1594 16.8581C22.7717 16.258 23.4947 15.7878 24.3282 15.4474C25.1617 15.1071 26.0703 14.9273 27.0542 14.908C28.05 14.8885 28.965 15.0326 29.7991 15.3404C30.6453 15.6479 31.3801 16.0896 32.0035 16.6655C32.6389 17.2412 33.1383 17.9216 33.5017 18.7066C33.8649 19.4796 34.0558 20.3401 34.0743 21.2879C34.0926 22.2237 33.9357 23.097 33.6035 23.9076C33.271 24.7063 32.7986 25.4056 32.1862 26.0057C31.5856 26.5936 30.8686 27.0577 30.0351 27.3981C29.2136 27.7382 28.3109 27.9179 27.3271 27.9372ZM27.2605 25.454C27.8244 25.443 28.3384 25.3369 28.8026 25.1358C29.2787 24.9344 29.6932 24.6502 30.0461 24.2833C30.399 23.9163 30.6666 23.485 30.849 22.9893C31.0433 22.4934 31.1346 21.9455 31.1229 21.3456C31.1111 20.7458 30.9985 20.2019 30.7849 19.7139C30.5833 19.2258 30.299 18.8053 29.932 18.4524C29.5771 18.0993 29.1577 17.8314 28.6741 17.6488C28.1904 17.4663 27.6666 17.3805 27.1027 17.3915C26.5389 17.4026 26.0188 17.5088 25.5427 17.7101C25.0785 17.9112 24.67 18.1953 24.3171 18.5622C23.9642 18.9292 23.6906 19.3607 23.4963 19.8565C23.3139 20.3522 23.2286 20.9 23.2404 21.4999C23.2519 22.0878 23.3585 22.6318 23.5604 23.1319C23.7739 23.6198 24.0582 24.0404 24.4132 24.3935C24.7802 24.7464 25.2055 25.0141 25.6892 25.1967C26.1728 25.3792 26.6966 25.465 27.2605 25.454ZM44.8353 14.7761L47.7508 14.7191L47.9972 27.3167L45.0818 27.3737L44.8353 14.7761ZM39.3589 27.4857L36.4435 27.5427L36.197 14.9452L39.1124 14.8881L39.3589 27.4857ZM45.1967 22.2045L39.0419 22.3249L38.9936 19.8594L45.1485 19.739L45.1967 22.2045ZM51.1955 27.4521C50.9795 27.4564 50.7512 27.4428 50.5106 27.4115C50.2819 27.38 50.029 27.3369 49.7519 27.2823L49.8836 24.8133C50.0525 24.858 50.227 24.8786 50.4069 24.8751C50.8988 24.8654 51.2789 24.66 51.5471 24.2587C51.8151 23.8453 52.0016 23.2596 52.1068 22.5014C52.212 21.7432 52.272 20.8238 52.2869 19.7433L52.3669 14.6288L62.049 14.4393L62.2955 27.0369L59.4161 27.0933L59.203 16.2053L59.8819 16.8582L54.321 16.967L54.9011 16.2535L54.8583 19.585C54.8465 20.8215 54.784 21.9209 54.6708 22.8833C54.5576 23.8457 54.3696 24.6655 54.1068 25.3428C53.844 26.0201 53.476 26.5374 53.0029 26.8947C52.5298 27.252 51.9274 27.4378 51.1955 27.4521ZM64.0201 27.0032L69.3885 14.2957L72.268 14.2394L78.1474 26.7268L75.088 26.7866L70.2632 15.7549L71.415 15.7324L67.0075 26.9447L64.0201 27.0032ZM66.7747 24.2488L67.5053 22.02L73.984 21.8933L74.8192 24.0914L66.7747 24.2488ZM79.818 26.6941L79.5715 14.0965L82.4689 14.0398L82.6295 22.2462L88.4798 13.9222L91.2153 13.8687L91.4617 26.4663L88.5823 26.5226L88.4221 18.3342L82.5714 26.6402L79.818 26.6941ZM85.3685 13.1729C84.1688 13.1964 83.2822 12.9737 82.7089 12.5048C82.1477 12.0357 81.8524 11.3633 81.8233 10.4877L83.8209 10.4487C83.8414 10.8803 83.9738 11.2078 84.2182 11.4311C84.4744 11.6421 84.8484 11.7428 85.3404 11.7332C85.8203 11.7238 86.1841 11.6087 86.4318 11.3878C86.6793 11.1549 86.8048 10.8224 86.8084 10.3902L88.806 10.3511C88.8111 11.2272 88.5364 11.9107 87.9819 12.4016C87.4274 12.8926 86.5563 13.1497 85.3685 13.1729ZM102.99 13.6383L105.906 13.5812L106.152 26.1788L103.237 26.2359L102.99 13.6383ZM97.5138 26.3478L94.5983 26.4049L94.3519 13.8073L97.2673 13.7502L97.5138 26.3478ZM103.352 21.0666L97.1968 21.187L97.1485 18.7215L103.303 18.6011L103.352 21.0666ZM121.881 23.4946L121.246 24.1732L121.033 13.2852L123.931 13.2285L124.144 24.1165L123.447 23.464L128.774 23.3597L128.103 24.039L127.89 13.1511L130.787 13.0944L131.034 25.692L114.405 26.0173L114.159 13.4197L117.056 13.3631L117.269 24.251L116.59 23.5981L121.881 23.4946ZM142.312 25.4713L138.27 19.4832L140.599 18.0154L145.623 25.4065L142.312 25.4713ZM134.123 25.6315L133.877 13.0339L136.774 12.9773L137.021 25.5748L134.123 25.6315ZM136.075 20.5164L136.028 18.0868L140.419 18.0009L140.467 20.4304L136.075 20.5164ZM140.899 19.5218L138.211 19.2503L142.173 12.8716L145.25 12.8114L140.899 19.5218ZM152.969 25.4788C151.973 25.4983 151.046 25.3544 150.188 25.0472C149.342 24.7396 148.601 24.2981 147.966 23.7224C147.342 23.1465 146.849 22.466 146.486 21.6809C146.134 20.8957 145.949 20.0351 145.931 19.0993C145.913 18.1635 146.064 17.2964 146.384 16.4979C146.717 15.6993 147.189 14.9999 147.801 14.3998C148.414 13.7997 149.137 13.3295 149.97 12.9891C150.804 12.6487 151.712 12.4689 152.696 12.4497C153.692 12.4302 154.607 12.5743 155.441 12.8821C156.287 13.1896 157.022 13.6313 157.645 14.2072C158.281 14.7829 158.78 15.4632 159.144 16.2483C159.507 17.0213 159.698 17.8818 159.716 18.8296C159.735 19.7654 159.578 20.6386 159.245 21.4493C158.913 22.2479 158.441 22.9473 157.828 23.5474C157.228 24.1353 156.511 24.5994 155.677 24.9398C154.856 25.2799 153.953 25.4596 152.969 25.4788ZM152.902 22.9957C153.466 22.9846 153.98 22.8786 154.445 22.6774C154.921 22.4761 155.335 22.1919 155.688 21.8249C156.041 21.458 156.309 21.0267 156.491 20.531C156.685 20.0351 156.777 19.4872 156.765 18.8873C156.753 18.2874 156.64 17.7435 156.427 17.2556C156.225 16.7675 155.941 16.3469 155.574 15.9941C155.219 15.6409 154.8 15.3731 154.316 15.1905C153.832 15.0079 153.309 14.9222 152.745 14.9332C152.181 14.9442 151.661 15.0504 151.185 15.2518C150.72 15.4529 150.312 15.7369 149.959 16.1039C149.606 16.4709 149.333 16.9023 149.138 17.3982C148.956 17.8939 148.871 18.4417 148.882 19.0415C148.894 19.6294 149.001 20.1735 149.202 20.6736C149.416 21.1615 149.7 21.582 150.055 21.9352C150.422 22.288 150.847 22.5558 151.331 22.7384C151.815 22.9209 152.339 23.0067 152.902 22.9957ZM161.864 25.2868C161.648 25.291 161.42 25.2775 161.179 25.2462C160.95 25.2147 160.697 25.1716 160.42 25.117L160.552 22.648C160.721 22.6927 160.895 22.7132 161.075 22.7097C161.567 22.7001 161.947 22.4946 162.215 22.0933C162.483 21.68 162.67 21.0942 162.775 20.336C162.88 19.5778 162.94 18.6585 162.955 17.578L163.035 12.4634L172.717 12.274L172.964 24.8716L170.084 24.9279L169.871 14.04L170.55 14.6928L164.989 14.8016L165.569 14.0882L165.527 17.4196C165.515 18.6561 165.452 19.7555 165.339 20.7179C165.226 21.6803 165.038 22.5002 164.775 23.1774C164.512 23.8547 164.144 24.372 163.671 24.7293C163.198 25.0867 162.596 25.2725 161.864 25.2868ZM174.688 24.8378L180.057 12.1304L182.936 12.074L188.816 24.5614L185.756 24.6213L180.932 13.5895L182.083 13.567L177.676 24.7794L174.688 24.8378ZM177.443 22.0834L178.174 19.8547L184.652 19.7279L185.487 21.926L177.443 22.0834Z" fill="#7533E0"/>
</svg>
